<?xml version="1.0" encoding="UTF-8"?>
<svg version="1.1" xmlns="http://www.w3.org/2000/svg" width="1254" height="1254">
<path d="M0 0 C413.82 0 827.64 0 1254 0 C1254 413.82 1254 827.64 1254 1254 C840.18 1254 426.36 1254 0 1254 C0 840.18 0 426.36 0 0 Z " fill="#030303" transform="translate(0,0)"/>
<path d="M0 0 C264 0 528 0 800 0 C800 41.25 800 82.5 800 125 C536 125 272 125 0 125 C0 83.75 0 42.5 0 0 Z " fill="#FD6102" transform="translate(227,357)"/>
<path d="M0 0 C210.87 0 421.74 0 639 0 C639 41.25 639 82.5 639 125 C428.13 125 217.26 125 0 125 C0 83.75 0 42.5 0 0 Z " fill="#FD6102" transform="translate(227,564)"/>
<path d="M0 0 C146.19 0 292.38 0 443 0 C443 41.58 443 83.16 443 126 C296.81 126 150.62 126 0 126 C0 84.42 0 42.84 0 0 Z " fill="#FB6102" transform="translate(227,771)"/>
</svg>
